<svg xmlns="http://www.w3.org/2000/svg"><symbol id="icon-email_icon" viewBox="0 0 22 16"><title/><path d="M21.3 16H.7L8 8.7l3 2.3 3-2.3 7.3 7.3zm.7-.7V2.5L14.8 8l7.2 7.3zm-22 0V2.5L7.2 8 0 15.3zm22-14V0H0v1.3l11 8.4 11-8.4z"/></symbol><symbol id="icon-fb_icon" viewBox="0 0 22.4 48.3"><path d="M22.4 15.6h-7.6v-5c0-1.9 1.2-2.3 2.1-2.3h5.4V0h-7.4C6.6 0 4.8 6.2 4.8 10.1v5.5H0v8.5h4.8v24.1h10V24.1h6.8l.8-8.5z"/></symbol><symbol id="icon-google_icon" viewBox="0 0 128 81.5"><path d="M40.7 32.7v16.1h22C59.3 59.3 53.9 65 40.7 65 27.4 65 17 54.2 17 40.8s10.4-24.2 23.7-24.2c7.1 0 11.6 2.5 15.8 5.9 3.3-3.3 3.1-3.8 11.6-11.9C60.8 4 51.2 0 40.7 0 18.2 0 0 18.2 0 40.7s18.2 40.7 40.7 40.7c33.6 0 41.8-29.3 39-48.8 0 .1-39 .1-39 .1zm73.2.8V19.4h-10.1v14.1H89.4v10.1h14.5v14.5H114V43.5h14v-10h-14.1z"/></symbol><symbol id="icon-linkedin_icon" viewBox="0 0 58.1 58.1"><style>.st0{fill:none}</style><g id="Layer_x0020_1"><path class="st0" d="M-32.4-32.4H90.5V90.5H-32.4z"/><g id="_799061112"><path d="M1.2 58.1h11.9V19.4H1.2z"/><path d="M7.1 14.3c3.9 0 7.1-3.2 7.1-7.2S11 0 7.1 0C3.2 0 0 3.2 0 7.1s3.2 7.2 7.1 7.2z"/><path d="M32.3 37.7c0-5.4 2.5-8.7 7.3-8.7 4.4 0 6.5 3.1 6.5 8.7V58H58V33.5c0-10.4-5.8-15.3-14-15.3s-11.7 6.4-11.7 6.4v-5.2H20.8v38.7h11.5V37.7z"/></g></g></symbol><symbol id="icon-moz_logo_eng_footer_logo" viewBox="0 0 97.6 51.3"><style>.st0{fill:#949ca5}.st1{font-family:'BebasNeueRegular'}.st2{font-size:19.1311px}</style><path class="st0" d="M23.8 25h1.5v26.2h-1.5z"/><path class="st0" d="M23.8 0h1.5v25.6h-1.5z"/><text transform="translate(32.58 13.41)" class="st0 st1 st2">Ministry</text><text transform="translate(32.58 32.358)" class="st0 st1 st2">of health</text><text transform="translate(32.58 51.306)" class="st0 st1 st2">of Ukraine</text><g><path class="st0" d="M11.5 7.8c-.5 4.1-.7 5.9-.7 5.9h.3c.2 0 1.3.3 1.3 1.3s-.9 1.3-1.3 1.3-.5-.1-.5-.1-2-2.8-2-7.1c0-2.7.2-5.2.2-6.6 0-.2 0-1.6-1-2.6-1 1.1-1 2.4-1 2.6 0 1.4.2 3.9.2 6.6 0 4.2-2 7.1-2 7.1s0 .1-.5.1c-.4 0-1.3-.3-1.3-1.3s1.1-1.3 1.3-1.3h.3s-.2-1.8-.7-5.9C3.3 3.4 0 1.9 0 1.9v19h4.4s.3 2.7 2.7 4.4c0 0 .7.6.8.9 0-.2.8-.9.8-.9 2.3-1.7 2.7-4.4 2.7-4.4h4.4v-19c-.1 0-3.4 1.5-4.3 5.9zM1.3 4.7s1.2 1.5 1.5 3.2c.2 1.6.6 4.7.6 4.7s-1.1.6-1.4 1.8h-.7V4.7zm2.9 14.9H1.3v-3.9H2c.4 1.7 2.2 2 2.5 2-.3.8-.3 1.9-.3 1.9zm3 4c-1.2-1.1-1.4-2.7-1.4-2.7h1.4v2.7zm-1.6-4c0-.8.1-1.3.2-1.6 1.3.2 1.4 1.6 1.4 1.6H5.6zm2.2-1.9l-1.5-1c.9-1.4 1.5-3.6 1.5-3.6s.6 2.1 1.5 3.6l-1.5 1zm.7 5.9v-2.7h1.4s-.2 1.5-1.4 2.7zm0-4s.1-1.4 1.4-1.6c.1.4.2.8.2 1.6H8.5zm5.8 0h-2.9s0-1.1-.3-2c.3 0 2.1-.3 2.5-2h.7v4zm0-5.2h-.7c-.3-1.2-1.4-1.7-1.4-1.7s.4-3.1.6-4.7c.3-1.7 1.5-3.2 1.5-3.2v9.6z"/></g></symbol><symbol id="icon-moz_logo_eng_logo" viewBox="0 0 117 61.5"><style>.st0{fill:#ffcb05}.st1{fill:#2e3192}.st2{fill:#2b2b2b}.st3{font-family:'BebasNeueRegular'}.st4{font-size:22.9597px}</style><path class="st0" d="M28.5 30h1.8v31.4h-1.8z"/><path class="st1" d="M28.5 0h1.8v30.8h-1.8z"/><text transform="translate(39.099 16.078)" class="st2 st3 st4">Ministry</text><text transform="translate(39.099 38.818)" class="st2 st3 st4">of health</text><text transform="translate(39.099 61.558)" class="st2 st3 st4">of Ukraine</text><g><path class="st2" d="M13.8 9.4c-.6 4.9-.8 7.1-.8 7.1h.4c.3 0 1.6.3 1.6 1.5s-1.1 1.6-1.6 1.6-.5-.1-.5-.1-2.4-3.4-2.4-8.5c0-3.2.2-6.2.2-7.9 0-.3 0-1.9-1.2-3.1-1.2 1.2-1.3 2.8-1.3 3.1 0 1.7.2 4.6.2 7.9 0 5.1-2.4 8.5-2.4 8.5s0 .1-.5.1-1.6-.4-1.6-1.6c0-1.2 1.3-1.5 1.6-1.5h.4s-.3-2.2-.9-7.1C4 4.1 0 2.3 0 2.3V25h5.3s.4 3.2 3.2 5.3c0 0 .9.8.9 1 0-.3.9-1 .9-1 2.8-2 3.2-5.3 3.2-5.3h5.3V2.3s-3.9 1.8-5 7.1zM1.6 5.6S3 7.4 3.4 9.5c.2 1.9.7 5.7.7 5.7s-1.4.6-1.7 2h-.9l.1-11.6zm3.5 17.9H1.6v-4.7h.9c.4 2 2.6 2.4 3 2.4-.4 1-.4 2.3-.4 2.3zm3.5 4.8C7.1 26.9 7 25 7 25h1.6v3.3zm-1.9-4.8c0-1 .1-1.5.3-1.9 1.6.3 1.7 1.9 1.7 1.9h-2zm2.7-2.3S8 20.3 7.6 20c1.1-1.7 1.8-4.3 1.8-4.3s.7 2.6 1.8 4.3c-.4.3-1.8 1.2-1.8 1.2zm.8 7.1v-3.2h1.6c0-.1-.1 1.8-1.6 3.2zm0-4.8s.1-1.7 1.7-1.9c.1.4.3 1 .3 1.9h-2zm7 0h-3.5s0-1.3-.3-2.4c.3 0 2.5-.3 3-2.4h.9l-.1 4.8zm0-6.3h-.9c-.3-1.4-1.7-2-1.7-2s.5-3.8.7-5.7c.4-2.1 1.8-3.9 1.8-3.9l.1 11.6z"/></g></symbol><symbol id="icon-moz_logo_footer" viewBox="0 0 117 73"><style>.st0{fill:#949ca5}.st1{font-family:'BebasNeueRegular'}.st2{font-size:19.8px}</style><text transform="translate(33.234 14.07)" class="st0 st1 st2">&#x41C;I&#x43D;I&#x441;&#x442;&#x435;&#x440;&#x441;&#x442;&#x432;&#x43E;</text><text transform="translate(33.234 33.68)" class="st0 st1 st2">&#x43E;&#x445;&#x43E;&#x440;&#x43E;&#x43D;&#x438;</text><text transform="translate(33.234 53.288)" class="st0 st1 st2">&#x437;&#x434;&#x43E;&#x440;&#x43E;&#x432;&#x2019;&#x44F;</text><text transform="translate(33.234 72.897)" class="st0 st1 st2">&#x423;&#x43A;&#x440;&#x430;I&#x43D;&#x438;</text><path class="st0" d="M11.9 8.2c-.5 4.2-.7 6.1-.7 6.1h.3c.2 0 1.4.3 1.4 1.3S12 17 11.5 17c-.4.1-.5 0-.5 0s-2.1-2.9-2.1-7.3c0-2.8.2-5.4.2-6.8 0-.3 0-1.6-1-2.7-1 1.1-1 2.4-1 2.7 0 1.5.2 4 .2 6.8 0 4.4-2.1 7.3-2.1 7.3s0 .1-.5.1-1.4-.3-1.4-1.4c0-1 1.1-1.3 1.4-1.3H5s-.2-1.9-.7-6.1C3.4 3.7 0 2.1 0 2.1v19.6h4.6s.3 2.8 2.8 4.5c0 0 .8.7.8.9 0-.2.8-.9.8-.9 2.4-1.8 2.8-4.5 2.8-4.5h4.6V2.1c-.2 0-3.6 1.6-4.5 6.1zM1.4 5S2.6 6.5 3 8.4c.2 1.7.6 4.9.6 4.9s-1.2.5-1.5 1.7h-.7V5zm3 15.4h-3v-4.1h.7c.4 1.8 2.3 2.1 2.6 2.1-.3.9-.3 2-.3 2zm3 4.1C6.2 23.4 6 21.7 6 21.7h1.4v2.8zm-1.6-4.1c0-.8.1-1.3.2-1.7 1.4.2 1.4 1.7 1.4 1.7H5.8zm2.3-1.9l-1.5-1c.9-1.5 1.5-3.7 1.5-3.7s.6 2.2 1.5 3.7c-.3.1-1.5 1-1.5 1zm.7 6v-2.8h1.4s-.1 1.7-1.4 2.8zm0-4.1s.1-1.5 1.4-1.7c.1.4.2.8.2 1.7H8.8zm6.1 0h-3s0-1.1-.3-2c.3 0 2.2-.3 2.6-2.1h.7v4.1zm0-5.4h-.7c-.3-1.2-1.5-1.7-1.5-1.7s.4-3.2.6-4.9c.3-1.8 1.6-3.4 1.6-3.4v10z"/><path class="st0" d="M68.3 57.1v1h-1v-1h1z"/><g><path class="st0" d="M66.4 57.1v1h-1.1v-1h1.1z"/></g><path class="st0" d="M24.2 36.5h1.6v36.4h-1.6z"/><path class="st0" d="M24.2.3h1.6v36.2h-1.6z"/></symbol><symbol id="icon-twitter_icon" viewBox="0 0 24 20"><title/><path d="M23.9 2.4c-.2-.2-.4-.2-.6-.1-.2.1-.5.2-.8.3.4-.5.7-1 .9-1.6.1-.3-.1-.5-.4-.6-.1 0-.3 0-.4.1-.8.4-1.6.8-2.5 1-1-1-2.3-1.5-3.6-1.5-1.1 0-2.1.3-3 .9C11.6 2 11.3 4.5 11.4 6c-3.5-.3-6.8-2-9-4.8-.1-.1-.2-.2-.4-.2s-.3.1-.4.3C.6 3 .7 5.3 1.8 7l-.4-.4c-.2-.2-.5-.2-.7 0-.2.1-.2.3-.2.4 0 1.9 1 3.6 2.5 4.6l-.4-.1c-.3-.1-.5.1-.6.3v.3c.8 1.8 2.3 3.1 4.2 3.6-1.7 1-3.7 1.4-5.6 1.2-.3.1-.6.3-.6.5s.1.4.2.5C2.6 19.3 5.3 20 8 20c3.8 0 7.5-1.7 10-4.6 2.5-2.7 3.8-6.3 3.6-9.9.9-.7 1.7-1.5 2.3-2.4.1-.3.1-.5 0-.7z"/></symbol><symbol id="icon-vintage-logo" viewBox="0 0 84.1 115.5"><style>.st0{fill:#c0bfbe}</style><g><path d="M21.7 0H0l5.1 19.8h21.5z"/><path d="M63.2 0L33.7 115.5h21L84.1 0z"/></g></symbol></svg>