<?xml version="1.0" encoding="utf-8"?>
<!-- Generator: Adobe Illustrator 19.2.1, SVG Export Plug-In . SVG Version: 6.00 Build 0)  -->
<!DOCTYPE svg PUBLIC "-//W3C//DTD SVG 1.1//EN" "http://www.w3.org/Graphics/SVG/1.1/DTD/svg11.dtd">
<svg version="1.1" id="Social_Icons" xmlns="http://www.w3.org/2000/svg" xmlns:xlink="http://www.w3.org/1999/xlink" x="0px"
	 y="0px" viewBox="0 0 128 81.5" style="enable-background:new 0 0 128 81.5;" xml:space="preserve">
<g id="_x35__stroke">
	<g id="Google_Plus">
		<path id="Google_Plus_1_" d="M40.7,32.7v16.1c0,0,15.6,0,22,0c-3.4,10.5-8.8,16.2-22,16.2c-13.3,0-23.7-10.8-23.7-24.2
			s10.4-24.2,23.7-24.2c7.1,0,11.6,2.5,15.8,5.9c3.3-3.3,3.1-3.8,11.6-11.9C60.8,4,51.2,0,40.7,0C18.2,0,0,18.2,0,40.7
			s18.2,40.7,40.7,40.7c33.6,0,41.8-29.3,39-48.8C79.7,32.7,40.7,32.7,40.7,32.7z M113.9,33.5V19.4h-10.1v14.1H89.4v10.1h14.5v14.5
			h10.1V43.5H128V33.5H113.9z"/>
	</g>
</g>
</svg>
