<?xml version="1.0" encoding="utf-8"?>
<!-- Generator: Adobe Illustrator 19.2.1, SVG Export Plug-In . SVG Version: 6.00 Build 0)  -->
<!DOCTYPE svg PUBLIC "-//W3C//DTD SVG 1.1//EN" "http://www.w3.org/Graphics/SVG/1.1/DTD/svg11.dtd">
<svg version="1.1" id="Layer_1" xmlns="http://www.w3.org/2000/svg" xmlns:xlink="http://www.w3.org/1999/xlink" x="0px" y="0px"
	 viewBox="0 0 58.1 58.1" style="enable-background:new 0 0 58.1 58.1;" xml:space="preserve">
<style type="text/css">
	.st0{fill:none;}
</style>
<g id="Layer_x0020_1">
	<rect x="-32.4" y="-32.4" class="st0" width="122.9" height="122.9"/>
	<g id="_799061112">
		<g>
			<polygon points="1.2,58.1 13.1,58.1 13.1,19.4 1.2,19.4 			"/>
			<path d="M7.1,14.3c3.9,0,7.1-3.2,7.1-7.2S11,0,7.1,0C3.2,0,0,3.2,0,7.1S3.2,14.3,7.1,14.3z"/>
		</g>
		<path d="M32.3,37.7c0-5.4,2.5-8.7,7.3-8.7c4.4,0,6.5,3.1,6.5,8.7s0,20.3,0,20.3h11.9c0,0,0-14.1,0-24.5S52.2,18.2,44,18.2
			c-8.2,0-11.7,6.4-11.7,6.4v-5.2H20.8v38.7h11.5C32.3,58.1,32.3,43.7,32.3,37.7z"/>
	</g>
</g>
</svg>
