<?xml version="1.0" encoding="utf-8"?>
<!-- Generator: Adobe Illustrator 19.2.1, SVG Export Plug-In . SVG Version: 6.00 Build 0)  -->
<!DOCTYPE svg PUBLIC "-//W3C//DTD SVG 1.1//EN" "http://www.w3.org/Graphics/SVG/1.1/DTD/svg11.dtd">
<svg version="1.1" id="Layer_1" xmlns="http://www.w3.org/2000/svg" xmlns:xlink="http://www.w3.org/1999/xlink" x="0px" y="0px"
	 viewBox="0 0 117 73" style="enable-background:new 0 0 117 73;" xml:space="preserve">
<style type="text/css">
	.st0{fill:#949CA5;}
	.st1{font-family:'BebasNeueRegular';}
	.st2{font-size:19.8px;}
</style>
<g>
	<text transform="matrix(1 0 0 1 33.2339 14.0708)" class="st0 st1 st2">МIнIстерство </text>
	<text transform="matrix(1 0 0 1 33.2339 33.6802)" class="st0 st1 st2">охорони </text>
	<text transform="matrix(1 0 0 1 33.2339 53.2881)" class="st0 st1 st2">здоров’я </text>
	<text transform="matrix(1 0 0 1 33.2339 72.8965)" class="st0 st1 st2">УкраIни</text>
</g>
<g>
	<path class="st0" d="M11.9,8.2c-0.5,4.2-0.7,6.1-0.7,6.1s0.1,0,0.3,0s1.4,0.3,1.4,1.3S12,17,11.5,17c-0.4,0.1-0.5,0-0.5,0
		s-2.1-2.9-2.1-7.3c0-2.8,0.2-5.4,0.2-6.8c0-0.3,0-1.6-1-2.7c-1,1.1-1,2.4-1,2.7c0,1.5,0.2,4,0.2,6.8c0,4.4-2.1,7.3-2.1,7.3
		s0,0.1-0.5,0.1s-1.4-0.3-1.4-1.4c0-1,1.1-1.3,1.4-1.3s0.3,0,0.3,0s-0.2-1.9-0.7-6.1C3.4,3.7,0,2.1,0,2.1v19.6h4.6
		c0,0,0.3,2.8,2.8,4.5c0,0,0.8,0.7,0.8,0.9c0-0.2,0.8-0.9,0.8-0.9c2.4-1.8,2.8-4.5,2.8-4.5h4.6V2.1C16.2,2.1,12.8,3.7,11.9,8.2z
		 M1.4,5c0,0,1.2,1.5,1.6,3.4c0.2,1.7,0.6,4.9,0.6,4.9S2.4,13.8,2.1,15c-0.2,0-0.7,0-0.7,0L1.4,5L1.4,5z M4.4,20.4h-3v-4.1h0.7
		c0.4,1.8,2.3,2.1,2.6,2.1C4.4,19.3,4.4,20.4,4.4,20.4z M7.4,24.5C6.2,23.4,6,21.7,6,21.7h1.4C7.4,21.7,7.4,23.8,7.4,24.5z
		 M5.8,20.4c0-0.8,0.1-1.3,0.2-1.7c1.4,0.2,1.4,1.7,1.4,1.7H5.8z M8.1,18.5c0,0-1.2-0.8-1.5-1c0.9-1.5,1.5-3.7,1.5-3.7
		s0.6,2.2,1.5,3.7C9.3,17.6,8.1,18.5,8.1,18.5z M8.8,24.5c0-0.7,0-2.8,0-2.8h1.4C10.2,21.7,10.1,23.4,8.8,24.5z M8.8,20.4
		c0,0,0.1-1.5,1.4-1.7c0.1,0.4,0.2,0.8,0.2,1.7H8.8z M14.9,20.4h-3c0,0,0-1.1-0.3-2c0.3,0,2.2-0.3,2.6-2.1h0.7
		C14.9,16.3,14.9,20.4,14.9,20.4z M14.9,15c0,0-0.5,0-0.7,0c-0.3-1.2-1.5-1.7-1.5-1.7s0.4-3.2,0.6-4.9C13.6,6.6,14.9,5,14.9,5V15z"
		/>
</g>
<g>
	<path class="st0" d="M68.3,57.1v1h-1v-1H68.3z"/>
</g>
<g>
	<path class="st0" d="M66.4,57.1v1h-1.1v-1H66.4z"/>
</g>
<rect x="24.2" y="36.5" class="st0" width="1.6" height="36.4"/>
<rect x="24.2" y="0.3" class="st0" width="1.6" height="36.2"/>
</svg>
