<?xml version="1.0" encoding="utf-8"?>
<!-- Generator: Adobe Illustrator 19.2.1, SVG Export Plug-In . SVG Version: 6.00 Build 0)  -->
<!DOCTYPE svg PUBLIC "-//W3C//DTD SVG 1.1//EN" "http://www.w3.org/Graphics/SVG/1.1/DTD/svg11.dtd">
<svg version="1.1" id="Layer_1" xmlns="http://www.w3.org/2000/svg" xmlns:xlink="http://www.w3.org/1999/xlink" x="0px" y="0px"
	 viewBox="0 0 117 61.5" style="enable-background:new 0 0 117 61.5;" xml:space="preserve">
<style type="text/css">
	.st0{fill:#FFCB05;}
	.st1{fill:#2E3192;}
	.st2{fill:#2B2B2B;}
	.st3{font-family:'BebasNeueRegular';}
	.st4{font-size:22.9597px;}
</style>
<g>
	<g>
		<g>
			<rect x="28.5" y="30" class="st0" width="1.8" height="31.4"/>
		</g>
		<g>
			<rect x="28.5" y="0" class="st1" width="1.8" height="30.8"/>
		</g>
	</g>
	<g>
		<text transform="matrix(1 0 0 1 39.0986 16.0783)" class="st2 st3 st4">Ministry </text>
		<text transform="matrix(1 0 0 1 39.0986 38.818)" class="st2 st3 st4">of health </text>
		<text transform="matrix(1 0 0 1 39.0986 61.5582)" class="st2 st3 st4">of Ukraine</text>
	</g>
	<g>
		<path class="st2" d="M13.8,9.4c-0.6,4.9-0.8,7.1-0.8,7.1s0.1,0,0.4,0c0.3,0,1.6,0.3,1.6,1.5c0,1.2-1.1,1.6-1.6,1.6
			c-0.5,0-0.5-0.1-0.5-0.1s-2.4-3.4-2.4-8.5c0-3.2,0.2-6.2,0.2-7.9c0-0.3,0-1.9-1.2-3.1C8.3,1.2,8.2,2.8,8.2,3.1
			c0,1.7,0.2,4.6,0.2,7.9c0,5.1-2.4,8.5-2.4,8.5s0,0.1-0.5,0.1S3.9,19.2,3.9,18c0-1.2,1.3-1.5,1.6-1.5c0.3,0,0.4,0,0.4,0
			S5.6,14.3,5,9.4C4,4.1,0,2.3,0,2.3V25h5.3c0,0,0.4,3.2,3.2,5.3c0,0,0.9,0.8,0.9,1c0-0.3,0.9-1,0.9-1c2.8-2,3.2-5.3,3.2-5.3h5.3
			V2.3C18.8,2.3,14.9,4.1,13.8,9.4z M1.6,5.6c0,0,1.4,1.8,1.8,3.9c0.2,1.9,0.7,5.7,0.7,5.7s-1.4,0.6-1.7,2c-0.3,0-0.9,0-0.9,0
			L1.6,5.6L1.6,5.6z M5.1,23.5H1.6v-4.7h0.9c0.4,2,2.6,2.4,3,2.4C5.1,22.2,5.1,23.5,5.1,23.5z M8.6,28.3C7.1,26.9,7,25,7,25h1.6
			C8.6,25,8.6,27.4,8.6,28.3z M6.7,23.5c0-1,0.1-1.5,0.3-1.9c1.6,0.3,1.7,1.9,1.7,1.9H6.7z M9.4,21.2c0,0-1.4-0.9-1.8-1.2
			c1.1-1.7,1.8-4.3,1.8-4.3s0.7,2.6,1.8,4.3C10.8,20.3,9.4,21.2,9.4,21.2z M10.2,28.3c0-0.9,0-3.2,0-3.2h1.6
			C11.8,25,11.7,26.9,10.2,28.3z M10.2,23.5c0,0,0.1-1.7,1.7-1.9c0.1,0.4,0.3,1,0.3,1.9H10.2z M17.2,23.5h-3.5c0,0,0-1.3-0.3-2.4
			c0.3,0,2.5-0.3,3-2.4h0.9L17.2,23.5L17.2,23.5z M17.2,17.2c0,0-0.6,0-0.9,0c-0.3-1.4-1.7-2-1.7-2s0.5-3.8,0.7-5.7
			c0.4-2.1,1.8-3.9,1.8-3.9L17.2,17.2L17.2,17.2z"/>
	</g>
</g>
</svg>
