<?xml version="1.0" encoding="utf-8"?>
<!-- Generator: Adobe Illustrator 19.2.1, SVG Export Plug-In . SVG Version: 6.00 Build 0)  -->
<!DOCTYPE svg PUBLIC "-//W3C//DTD SVG 1.1//EN" "http://www.w3.org/Graphics/SVG/1.1/DTD/svg11.dtd">
<svg version="1.1" id="Layer_1" xmlns="http://www.w3.org/2000/svg" xmlns:xlink="http://www.w3.org/1999/xlink" x="0px" y="0px"
	 viewBox="0 0 97.6 51.3" style="enable-background:new 0 0 97.6 51.3;" xml:space="preserve">
<style type="text/css">
	.st0{fill:#949CA5;}
	.st1{font-family:'BebasNeueRegular';}
	.st2{font-size:19.1311px;}
</style>
<g>
	<g>
		<g>
			<rect x="23.8" y="25" class="st0" width="1.5" height="26.2"/>
		</g>
		<g>
			<rect x="23.8" class="st0" width="1.5" height="25.6"/>
		</g>
	</g>
	<g>
		<text transform="matrix(1 0 0 1 32.5791 13.4099)" class="st0 st1 st2">Ministry </text>
		<text transform="matrix(1 0 0 1 32.5791 32.3576)" class="st0 st1 st2">of health </text>
		<text transform="matrix(1 0 0 1 32.5791 51.3064)" class="st0 st1 st2">of Ukraine</text>
	</g>
	<g>
		<path class="st0" d="M11.5,7.8c-0.5,4.1-0.7,5.9-0.7,5.9s0.1,0,0.3,0c0.2,0,1.3,0.3,1.3,1.3s-0.9,1.3-1.3,1.3
			c-0.4,0-0.5-0.1-0.5-0.1s-2-2.8-2-7.1c0-2.7,0.2-5.2,0.2-6.6c0-0.2,0-1.6-1-2.6c-1,1.1-1,2.4-1,2.6c0,1.4,0.2,3.9,0.2,6.6
			c0,4.2-2,7.1-2,7.1s0,0.1-0.5,0.1c-0.4,0-1.3-0.3-1.3-1.3s1.1-1.3,1.3-1.3c0.2,0,0.3,0,0.3,0s-0.2-1.8-0.7-5.9
			C3.3,3.4,0,1.9,0,1.9v19h4.4c0,0,0.3,2.7,2.7,4.4c0,0,0.7,0.6,0.8,0.9c0-0.2,0.8-0.9,0.8-0.9c2.3-1.7,2.7-4.4,2.7-4.4h4.4v-19
			C15.7,1.9,12.4,3.4,11.5,7.8z M1.3,4.7c0,0,1.2,1.5,1.5,3.2c0.2,1.6,0.6,4.7,0.6,4.7S2.3,13.2,2,14.4c-0.2,0-0.7,0-0.7,0L1.3,4.7
			L1.3,4.7z M4.2,19.6H1.3v-3.9H2c0.4,1.7,2.2,2,2.5,2C4.2,18.5,4.2,19.6,4.2,19.6z M7.2,23.6c-1.2-1.1-1.4-2.7-1.4-2.7h1.4
			C7.2,20.9,7.2,22.9,7.2,23.6z M5.6,19.6c0-0.8,0.1-1.3,0.2-1.6c1.3,0.2,1.4,1.6,1.4,1.6H5.6z M7.8,17.7c0,0-1.2-0.8-1.5-1
			c0.9-1.4,1.5-3.6,1.5-3.6s0.6,2.1,1.5,3.6C9,16.9,7.8,17.7,7.8,17.7z M8.5,23.6c0-0.7,0-2.7,0-2.7h1.4C9.9,20.9,9.7,22.4,8.5,23.6
			z M8.5,19.6c0,0,0.1-1.4,1.4-1.6c0.1,0.4,0.2,0.8,0.2,1.6H8.5z M14.3,19.6h-2.9c0,0,0-1.1-0.3-2c0.3,0,2.1-0.3,2.5-2h0.7
			L14.3,19.6L14.3,19.6z M14.3,14.4c0,0-0.5,0-0.7,0c-0.3-1.2-1.4-1.7-1.4-1.7s0.4-3.1,0.6-4.7c0.3-1.7,1.5-3.2,1.5-3.2L14.3,14.4
			L14.3,14.4z"/>
	</g>
</g>
</svg>
