<?xml version="1.0" encoding="utf-8"?>
<!-- Generator: Adobe Illustrator 19.2.1, SVG Export Plug-In . SVG Version: 6.00 Build 0)  -->
<!DOCTYPE svg PUBLIC "-//W3C//DTD SVG 1.1//EN" "http://www.w3.org/Graphics/SVG/1.1/DTD/svg11.dtd">
<svg version="1.1" id="Layer_1" xmlns="http://www.w3.org/2000/svg" xmlns:xlink="http://www.w3.org/1999/xlink" x="0px" y="0px"
	 viewBox="0 0 24 20" style="enable-background:new 0 0 24 20;" xml:space="preserve">
<title></title>
<g id="Twitter">
	<path d="M23.9,2.4c-0.2-0.2-0.4-0.2-0.6-0.1c-0.2,0.1-0.5,0.2-0.8,0.3c0.4-0.5,0.7-1,0.9-1.6c0.1-0.3-0.1-0.5-0.4-0.6c-0.1,0-0.3,0-0.4,0.1c-0.8,0.4-1.6,0.8-2.5,1C19.1,0.5,17.8,0,16.5,0c-1.1,0-2.1,0.3-3,0.9C11.6,2,11.3,4.5,11.4,6
		c-3.5-0.3-6.8-2-9-4.8C2.3,1.1,2.2,1,2,1C1.8,1,1.7,1.1,1.6,1.3C0.6,3,0.7,5.3,1.8,7C1.7,6.9,1.5,6.7,1.4,6.6
		c-0.2-0.2-0.5-0.2-0.7,0C0.5,6.7,0.5,6.9,0.5,7c0,1.9,1,3.6,2.5,4.6l-0.4-0.1c-0.3-0.1-0.5,0.1-0.6,0.3c0,0.1,0,0.2,0,0.3
		c0.8,1.8,2.3,3.1,4.2,3.6c-1.7,1-3.7,1.4-5.6,1.2C0.3,17,0,17.2,0,17.4c0,0.2,0.1,0.4,0.2,0.5C2.6,19.3,5.3,20,8,20l0,0
		c3.8,0,7.5-1.7,10-4.6c2.5-2.7,3.8-6.3,3.6-9.9c0.9-0.7,1.7-1.5,2.3-2.4C24,2.8,24,2.6,23.9,2.4z"/>
</g>
</svg>
